<mxfile host="app.diagrams.net" modified="2024-02-10T23:27:29.622Z" agent="Mozilla/5.0 (Windows NT 10.0; Win64; x64) AppleWebKit/537.36 (KHTML, like Gecko) Chrome/121.0.0.0 Safari/537.36" etag="vN2V6DHgLcaZtaj1Qn85" version="23.1.2" type="device">
  <diagram name="Page-1" id="nvm2YrRR7je-_vD_ZE7z">
    <mxGraphModel dx="1800" dy="1096" grid="1" gridSize="10" guides="1" tooltips="1" connect="1" arrows="1" fold="1" page="1" pageScale="1" pageWidth="1200" pageHeight="1600" math="0" shadow="0">
      <root>
        <mxCell id="0" />
        <mxCell id="1" parent="0" />
        <mxCell id="TQrT2YOfOla835E-z460-8" style="edgeStyle=orthogonalEdgeStyle;rounded=0;orthogonalLoop=1;jettySize=auto;html=1;endArrow=none;endFill=0;" edge="1" parent="1" source="t4M0KKJdUatueJOQqbK7-1">
          <mxGeometry relative="1" as="geometry">
            <mxPoint x="200" y="260" as="targetPoint" />
          </mxGeometry>
        </mxCell>
        <mxCell id="t4M0KKJdUatueJOQqbK7-1" value="Registered User" style="shape=umlActor;verticalLabelPosition=bottom;verticalAlign=top;html=1;outlineConnect=0;fillColor=#d5e8d4;strokeColor=#82b366;" parent="1" vertex="1">
          <mxGeometry x="120" y="230" width="30" height="60" as="geometry" />
        </mxCell>
        <mxCell id="t4M0KKJdUatueJOQqbK7-23" value="" style="whiteSpace=wrap;html=1;fillColor=#f5f5f5;fontColor=#333333;strokeColor=#666666;" parent="1" vertex="1">
          <mxGeometry x="220" y="148" width="580" height="750" as="geometry" />
        </mxCell>
        <mxCell id="TQrT2YOfOla835E-z460-7" style="edgeStyle=orthogonalEdgeStyle;rounded=0;orthogonalLoop=1;jettySize=auto;html=1;endArrow=none;endFill=0;" edge="1" parent="1" source="t4M0KKJdUatueJOQqbK7-2">
          <mxGeometry relative="1" as="geometry">
            <mxPoint x="200" y="430" as="targetPoint" />
          </mxGeometry>
        </mxCell>
        <mxCell id="t4M0KKJdUatueJOQqbK7-2" value="Registered Family &lt;br&gt;Group Host Users" style="shape=umlActor;verticalLabelPosition=bottom;verticalAlign=top;html=1;outlineConnect=0;fillColor=#f8cecc;strokeColor=#b85450;" parent="1" vertex="1">
          <mxGeometry x="120" y="400" width="30" height="60" as="geometry" />
        </mxCell>
        <mxCell id="sXuwBiEhBOUcGVMl-9tt-51" style="edgeStyle=orthogonalEdgeStyle;rounded=1;orthogonalLoop=1;jettySize=auto;html=1;exitX=0;exitY=0.5;exitDx=0;exitDy=0;entryX=0.5;entryY=0;entryDx=0;entryDy=0;curved=0;dashed=1;endArrow=none;endFill=0;startArrow=classic;startFill=1;" parent="1" source="t4M0KKJdUatueJOQqbK7-4" target="t4M0KKJdUatueJOQqbK7-9" edge="1">
          <mxGeometry relative="1" as="geometry" />
        </mxCell>
        <mxCell id="t4M0KKJdUatueJOQqbK7-4" value="Authenticate" style="ellipse;whiteSpace=wrap;html=1;fillColor=#fff2cc;strokeColor=#d6b656;" parent="1" vertex="1">
          <mxGeometry x="620" y="170" width="120" height="80" as="geometry" />
        </mxCell>
        <mxCell id="TQrT2YOfOla835E-z460-14" style="edgeStyle=orthogonalEdgeStyle;rounded=0;orthogonalLoop=1;jettySize=auto;html=1;dashed=1;" edge="1" parent="1" source="t4M0KKJdUatueJOQqbK7-5" target="t4M0KKJdUatueJOQqbK7-10">
          <mxGeometry relative="1" as="geometry" />
        </mxCell>
        <mxCell id="t4M0KKJdUatueJOQqbK7-5" value="Sign up" style="ellipse;whiteSpace=wrap;html=1;fillColor=#fff2cc;strokeColor=#d6b656;" parent="1" vertex="1">
          <mxGeometry x="300" y="730" width="115" height="65" as="geometry" />
        </mxCell>
        <mxCell id="t4M0KKJdUatueJOQqbK7-6" value="Profile Management" style="ellipse;whiteSpace=wrap;html=1;fillColor=#fff2cc;strokeColor=#d6b656;" parent="1" vertex="1">
          <mxGeometry x="448.62" y="390" width="110" height="65" as="geometry" />
        </mxCell>
        <mxCell id="t4M0KKJdUatueJOQqbK7-8" value="Family Group Management&amp;nbsp;" style="ellipse;whiteSpace=wrap;html=1;fillColor=#f8cecc;strokeColor=#b85450;" parent="1" vertex="1">
          <mxGeometry x="290" y="535" width="110" height="70" as="geometry" />
        </mxCell>
        <mxCell id="t4M0KKJdUatueJOQqbK7-9" value="Login" style="ellipse;whiteSpace=wrap;html=1;fillColor=#fff2cc;strokeColor=#d6b656;" parent="1" vertex="1">
          <mxGeometry x="441.93" y="210" width="116.69" height="70" as="geometry" />
        </mxCell>
        <mxCell id="TQrT2YOfOla835E-z460-15" style="edgeStyle=orthogonalEdgeStyle;rounded=0;orthogonalLoop=1;jettySize=auto;html=1;exitX=1;exitY=0.5;exitDx=0;exitDy=0;entryX=0;entryY=0.5;entryDx=0;entryDy=0;dashed=1;endArrow=none;endFill=0;startArrow=classic;startFill=1;" edge="1" parent="1" source="t4M0KKJdUatueJOQqbK7-10" target="t4M0KKJdUatueJOQqbK7-12">
          <mxGeometry relative="1" as="geometry" />
        </mxCell>
        <mxCell id="t4M0KKJdUatueJOQqbK7-10" value="Join family group" style="ellipse;whiteSpace=wrap;html=1;fillColor=#fff2cc;strokeColor=#d6b656;" parent="1" vertex="1">
          <mxGeometry x="483.31" y="737.5" width="80" height="50" as="geometry" />
        </mxCell>
        <mxCell id="t4M0KKJdUatueJOQqbK7-11" value="Forgot Password" style="ellipse;whiteSpace=wrap;html=1;fillColor=#fff2cc;strokeColor=#d6b656;" parent="1" vertex="1">
          <mxGeometry x="444.96" y="300" width="115.04" height="70" as="geometry" />
        </mxCell>
        <mxCell id="t4M0KKJdUatueJOQqbK7-12" value="Search or Create&amp;nbsp; Group" style="ellipse;whiteSpace=wrap;html=1;fillColor=#fff2cc;strokeColor=#d6b656;" parent="1" vertex="1">
          <mxGeometry x="630" y="737.5" width="80" height="50" as="geometry" />
        </mxCell>
        <mxCell id="t4M0KKJdUatueJOQqbK7-18" value="Engagement Features" style="ellipse;whiteSpace=wrap;html=1;fillColor=#fff2cc;strokeColor=#d6b656;" parent="1" vertex="1">
          <mxGeometry x="448.62" y="520" width="120" height="70" as="geometry" />
        </mxCell>
        <mxCell id="t4M0KKJdUatueJOQqbK7-25" value="&lt;font style=&quot;font-size: 17px;&quot;&gt;&lt;b&gt;Hikiddo - System use case diagram&lt;/b&gt;&lt;/font&gt;" style="text;html=1;strokeColor=none;fillColor=none;align=center;verticalAlign=middle;whiteSpace=wrap;rounded=0;" parent="1" vertex="1">
          <mxGeometry x="357.5" y="100" width="305" height="30" as="geometry" />
        </mxCell>
        <mxCell id="t4M0KKJdUatueJOQqbK7-45" value="Add Task to challenges" style="ellipse;whiteSpace=wrap;html=1;fillColor=#f8cecc;strokeColor=#b85450;" parent="1" vertex="1">
          <mxGeometry x="290" y="630" width="110" height="70" as="geometry" />
        </mxCell>
        <mxCell id="sXuwBiEhBOUcGVMl-9tt-2" value="&lt;font style=&quot;font-size: 9px;&quot;&gt;&amp;lt;&amp;lt; include &amp;gt;&amp;gt;&lt;/font&gt;" style="text;html=1;strokeColor=none;fillColor=none;align=center;verticalAlign=middle;whiteSpace=wrap;rounded=0;rotation=0;" parent="1" vertex="1">
          <mxGeometry x="520" y="150" width="66" height="60" as="geometry" />
        </mxCell>
        <mxCell id="sXuwBiEhBOUcGVMl-9tt-7" value="&lt;b&gt;&lt;font style=&quot;font-size: 19px;&quot;&gt;System&lt;/font&gt;&lt;/b&gt;" style="text;html=1;strokeColor=none;fillColor=none;align=center;verticalAlign=middle;whiteSpace=wrap;rounded=0;" parent="1" vertex="1">
          <mxGeometry x="470" y="830" width="110" height="60" as="geometry" />
        </mxCell>
        <mxCell id="sXuwBiEhBOUcGVMl-9tt-46" value="&lt;font style=&quot;font-size: 9px; background-color: rgb(255, 255, 255);&quot;&gt;&amp;lt;&amp;lt; extend &amp;gt;&amp;gt;&lt;/font&gt;" style="text;html=1;strokeColor=none;fillColor=none;align=center;verticalAlign=middle;whiteSpace=wrap;rounded=0;rotation=0;" parent="1" vertex="1">
          <mxGeometry x="563.31" y="740" width="66" height="20" as="geometry" />
        </mxCell>
        <mxCell id="sXuwBiEhBOUcGVMl-9tt-50" value="&lt;font style=&quot;font-size: 9px; background-color: rgb(255, 255, 255);&quot;&gt;&amp;lt;&amp;lt; include &amp;gt;&amp;gt;&lt;/font&gt;" style="text;html=1;strokeColor=none;fillColor=none;align=center;verticalAlign=middle;whiteSpace=wrap;rounded=0;rotation=0;" parent="1" vertex="1">
          <mxGeometry x="421.4" y="740" width="56.88" height="20" as="geometry" />
        </mxCell>
        <mxCell id="sXuwBiEhBOUcGVMl-9tt-68" value="Unregistered User" style="shape=umlActor;verticalLabelPosition=bottom;verticalAlign=top;html=1;outlineConnect=0;fillColor=#fff2cc;strokeColor=#d6b656;" parent="1" vertex="1">
          <mxGeometry x="120" y="730" width="30" height="60" as="geometry" />
        </mxCell>
        <mxCell id="sXuwBiEhBOUcGVMl-9tt-69" value="" style="endArrow=classic;html=1;rounded=0;entryX=0;entryY=0.5;entryDx=0;entryDy=0;" parent="1" target="t4M0KKJdUatueJOQqbK7-5" edge="1">
          <mxGeometry width="50" height="50" relative="1" as="geometry">
            <mxPoint x="170" y="760" as="sourcePoint" />
            <mxPoint x="410" y="830" as="targetPoint" />
          </mxGeometry>
        </mxCell>
        <mxCell id="sXuwBiEhBOUcGVMl-9tt-72" style="edgeStyle=orthogonalEdgeStyle;rounded=0;orthogonalLoop=1;jettySize=auto;html=1;exitX=0;exitY=0.5;exitDx=0;exitDy=0;entryX=0.5;entryY=1;entryDx=0;entryDy=0;startArrow=none;startFill=0;endArrow=classic;endFill=1;dashed=1;" parent="1" source="sXuwBiEhBOUcGVMl-9tt-71" target="t4M0KKJdUatueJOQqbK7-6" edge="1">
          <mxGeometry relative="1" as="geometry" />
        </mxCell>
        <mxCell id="sXuwBiEhBOUcGVMl-9tt-71" value="Edit / Delete" style="ellipse;whiteSpace=wrap;html=1;fillColor=#fff2cc;strokeColor=#d6b656;" parent="1" vertex="1">
          <mxGeometry x="570" y="480" width="80" height="50" as="geometry" />
        </mxCell>
        <mxCell id="sXuwBiEhBOUcGVMl-9tt-73" value="&lt;font style=&quot;font-size: 9px; background-color: rgb(255, 255, 255);&quot;&gt;&amp;lt;&amp;lt; extend &amp;gt;&amp;gt;&lt;/font&gt;" style="text;html=1;strokeColor=none;fillColor=none;align=center;verticalAlign=middle;whiteSpace=wrap;rounded=0;rotation=0;" parent="1" vertex="1">
          <mxGeometry x="478.28" y="475" width="73.44" height="20" as="geometry" />
        </mxCell>
        <mxCell id="TQrT2YOfOla835E-z460-2" value="" style="endArrow=classic;html=1;rounded=0;entryX=0;entryY=0.5;entryDx=0;entryDy=0;" edge="1" parent="1" target="t4M0KKJdUatueJOQqbK7-9">
          <mxGeometry width="50" height="50" relative="1" as="geometry">
            <mxPoint x="200" y="350" as="sourcePoint" />
            <mxPoint x="260" y="300" as="targetPoint" />
          </mxGeometry>
        </mxCell>
        <mxCell id="TQrT2YOfOla835E-z460-3" value="" style="endArrow=classic;html=1;rounded=0;entryX=0;entryY=0.5;entryDx=0;entryDy=0;" edge="1" parent="1" target="t4M0KKJdUatueJOQqbK7-11">
          <mxGeometry width="50" height="50" relative="1" as="geometry">
            <mxPoint x="200" y="350" as="sourcePoint" />
            <mxPoint x="453" y="258" as="targetPoint" />
          </mxGeometry>
        </mxCell>
        <mxCell id="TQrT2YOfOla835E-z460-4" value="" style="endArrow=classic;html=1;rounded=0;entryX=0;entryY=0.5;entryDx=0;entryDy=0;" edge="1" parent="1" target="t4M0KKJdUatueJOQqbK7-6">
          <mxGeometry width="50" height="50" relative="1" as="geometry">
            <mxPoint x="200" y="350" as="sourcePoint" />
            <mxPoint x="458" y="353" as="targetPoint" />
          </mxGeometry>
        </mxCell>
        <mxCell id="TQrT2YOfOla835E-z460-5" value="" style="endArrow=classic;html=1;rounded=0;entryX=0;entryY=0.5;entryDx=0;entryDy=0;" edge="1" parent="1" target="t4M0KKJdUatueJOQqbK7-18">
          <mxGeometry width="50" height="50" relative="1" as="geometry">
            <mxPoint x="200" y="350" as="sourcePoint" />
            <mxPoint x="470" y="443" as="targetPoint" />
          </mxGeometry>
        </mxCell>
        <mxCell id="TQrT2YOfOla835E-z460-6" value="" style="endArrow=none;html=1;rounded=0;" edge="1" parent="1">
          <mxGeometry width="50" height="50" relative="1" as="geometry">
            <mxPoint x="200" y="450" as="sourcePoint" />
            <mxPoint x="200" y="240" as="targetPoint" />
          </mxGeometry>
        </mxCell>
        <mxCell id="TQrT2YOfOla835E-z460-11" value="" style="endArrow=classic;html=1;rounded=0;entryX=0;entryY=0.5;entryDx=0;entryDy=0;" edge="1" parent="1" target="t4M0KKJdUatueJOQqbK7-8">
          <mxGeometry width="50" height="50" relative="1" as="geometry">
            <mxPoint x="140" y="500" as="sourcePoint" />
            <mxPoint x="170" y="510" as="targetPoint" />
          </mxGeometry>
        </mxCell>
        <mxCell id="TQrT2YOfOla835E-z460-12" value="" style="endArrow=classic;html=1;rounded=0;entryX=0;entryY=0.5;entryDx=0;entryDy=0;" edge="1" parent="1" target="t4M0KKJdUatueJOQqbK7-45">
          <mxGeometry width="50" height="50" relative="1" as="geometry">
            <mxPoint x="140" y="500" as="sourcePoint" />
            <mxPoint x="390" y="540" as="targetPoint" />
          </mxGeometry>
        </mxCell>
      </root>
    </mxGraphModel>
  </diagram>
</mxfile>
